<svg width="157" height="44" viewBox="0 0 157 44" fill="none" xmlns="http://www.w3.org/2000/svg">
<path d="M7.264 30.432L3.55349 33.7834L3.58184 33.8148L3.61072 33.8457L7.264 30.432ZM5.344 24.16L4.60072 19.2156L0.213863 19.875L0.346226 24.3092L5.344 24.16ZM10.24 23.424L15.2396 23.3591L15.1651 17.6274L9.49672 18.4796L10.24 23.424ZM10.816 26.976L6.34386 29.2121L6.38378 29.2919L6.42652 29.3703L10.816 26.976ZM13.248 23.552L8.99401 26.1795L9.02161 26.2242L9.05015 26.2683L13.248 23.552ZM11.104 21.216L7.81911 24.9855L7.84469 25.0078L7.87057 25.0298L11.104 21.216ZM8.864 19.264L12.1489 15.4945L12.1215 15.4706L12.0937 15.4471L8.864 19.264ZM6.272 16.288L1.90947 18.731L1.93867 18.7832L1.96912 18.8346L6.272 16.288ZM7.296 7.488L3.94781 3.77456L3.93254 3.78833L3.91738 3.80223L7.296 7.488ZM17.632 7.872L13.3672 10.4818L13.3812 10.5048L13.3956 10.5277L17.632 7.872ZM19.072 13.088L19.6842 18.0504L24.2121 17.4917L24.0696 12.9318L19.072 13.088ZM14.144 13.696L9.14652 13.8546L9.32031 19.329L14.7562 18.6584L14.144 13.696ZM13.76 10.816L8.99986 12.346L9.0333 12.4501L9.07126 12.5526L13.76 10.816ZM11.296 10.56L7.10378 7.83506L7.08599 7.86243L7.06856 7.89003L11.296 10.56ZM11.488 14.144L7.28211 16.8478L7.31572 16.9001L7.35062 16.9515L11.488 14.144ZM13.408 16.192L16.7124 12.4395L16.707 12.4348L13.408 16.192ZM15.552 18.08L12.2476 21.8325L12.2804 21.8614L12.3138 21.8897L15.552 18.08ZM18.528 21.536L22.8551 19.0308L22.8551 19.0308L18.528 21.536ZM18.72 29.184L14.3845 26.6934L14.3758 26.7085L14.3672 26.7237L18.72 29.184ZM16.352 31.52L13.9007 27.1621L13.9007 27.1621L16.352 31.52ZM12.8 27.384C11.9858 27.384 11.4911 27.2752 11.2227 27.1805C10.9824 27.0958 10.9235 27.0249 10.9173 27.0183L3.61072 33.8457C6.09403 36.5033 9.49527 37.384 12.8 37.384V27.384ZM10.9745 27.0806C10.9334 27.0351 10.4118 26.3569 10.3418 24.0108L0.346226 24.3092C0.44686 27.6804 1.20524 31.1836 3.55349 33.7834L10.9745 27.0806ZM6.08728 29.1044L10.9833 28.3684L9.49672 18.4796L4.60072 19.2156L6.08728 29.1044ZM5.24042 23.4889C5.2635 25.2663 5.44699 27.4183 6.34386 29.2121L15.2881 24.7399C15.4133 24.9903 15.3855 25.0516 15.3355 24.7436C15.2904 24.4651 15.2481 24.0172 15.2396 23.3591L5.24042 23.4889ZM6.42652 29.3703C6.94732 30.325 7.73454 31.296 8.88521 32.0125C10.0543 32.7404 11.3209 33.032 12.512 33.032V23.032C12.9564 23.032 13.567 23.1476 14.1708 23.5235C14.7561 23.888 15.0687 24.331 15.2055 24.5817L6.42652 29.3703ZM12.512 33.032C14.1807 33.032 16.1776 32.4148 17.5676 30.5922C18.7624 29.0258 18.952 27.2675 18.952 26.144H8.952C8.952 26.1434 8.95201 26.1348 8.95283 26.1187C8.95364 26.1027 8.95534 26.0778 8.95892 26.0449C8.9659 25.9808 8.98126 25.8753 9.01616 25.738C9.08487 25.4677 9.24551 25.014 9.61639 24.5278C10.0079 24.0145 10.535 23.5967 11.1397 23.3324C11.7148 23.0811 12.212 23.032 12.512 23.032V33.032ZM18.952 26.144C18.952 24.3357 18.5186 22.4936 17.4458 20.8357L9.05015 26.2683C9.02411 26.228 9.00202 26.1868 8.98442 26.147C8.96689 26.1074 8.95649 26.0754 8.95081 26.0545C8.93919 26.0118 8.952 26.0331 8.952 26.144H18.952ZM17.502 20.9245C16.6758 19.5868 15.5369 18.4192 14.3374 17.4022L7.87057 25.0298C8.63377 25.6768 8.92423 26.0665 8.99401 26.1795L17.502 20.9245ZM14.3889 17.4465L12.1489 15.4945L5.57911 23.0335L7.81911 24.9855L14.3889 17.4465ZM12.0937 15.4471C11.3292 14.8002 10.8597 14.2226 10.5749 13.7414L1.96912 18.8346C2.92167 20.4441 4.1801 21.8505 5.63429 23.0809L12.0937 15.4471ZM10.6345 13.845C10.5269 13.6528 10.376 13.2671 10.376 12.512H0.376C0.376 14.6582 0.822405 16.7898 1.90947 18.731L10.6345 13.845ZM10.376 12.512C10.376 11.9075 10.4654 11.569 10.5266 11.4089C10.5787 11.2726 10.6259 11.2184 10.6746 11.1738L3.91738 3.80223C1.35407 6.15192 0.376 9.3142 0.376 12.512H10.376ZM10.6442 11.2014C10.7851 11.0744 11.2457 10.728 12.64 10.728V0.727999C9.51166 0.727999 6.40956 1.55495 3.94781 3.77456L10.6442 11.2014ZM12.64 10.728C13.4149 10.728 13.7253 10.8455 13.7548 10.8582C13.7578 10.8595 13.694 10.8318 13.6019 10.754C13.5069 10.6738 13.4253 10.5769 13.3672 10.4818L21.8968 5.26218C19.7342 1.72807 15.9566 0.727999 12.64 0.727999V10.728ZM13.3956 10.5277C13.7293 11.06 14.0322 11.8923 14.0744 13.2442L24.0696 12.9318C23.9838 10.1877 23.3267 7.54265 21.8684 5.21632L13.3956 10.5277ZM18.4598 8.12562L13.5318 8.73362L14.7562 18.6584L19.6842 18.0504L18.4598 8.12562ZM19.1415 13.5374C19.0971 12.1397 18.9652 10.4738 18.4487 9.07942L9.07126 12.5526C9.02755 12.4346 9.0167 12.376 9.02307 12.4047C9.02847 12.429 9.04269 12.5001 9.05986 12.6288C9.095 12.8924 9.12864 13.2914 9.14652 13.8546L19.1415 13.5374ZM18.5201 9.28595C18.1493 8.13212 17.4056 6.9013 16.1078 6.01499C14.8478 5.15453 13.5064 4.92 12.448 4.92V14.92C12.0723 14.92 11.2908 14.8348 10.4682 14.273C9.60771 13.6854 9.17873 12.9025 8.99986 12.346L18.5201 9.28595ZM12.448 4.92C10.1906 4.92 8.26219 6.05289 7.10378 7.83506L15.4882 13.2849C15.2529 13.647 14.8473 14.1024 14.2202 14.4508C13.5856 14.8033 12.9511 14.92 12.448 14.92V4.92ZM7.06856 7.89003C6.2732 9.14935 5.912 10.546 5.912 11.936H15.912C15.912 12.1003 15.8909 12.3122 15.824 12.552C15.7564 12.7941 15.6533 13.0244 15.5234 13.23L7.06856 7.89003ZM5.912 11.936C5.912 13.5466 6.27107 15.2751 7.28211 16.8478L15.6939 11.4402C15.8071 11.6163 15.8663 11.7753 15.8941 11.8819C15.9202 11.9821 15.912 12.0097 15.912 11.936H5.912ZM7.35062 16.9515C8.09372 18.0466 9.08458 19.0497 10.109 19.9492L16.707 12.4348C15.9821 11.7983 15.693 11.4361 15.6254 11.3365L7.35062 16.9515ZM10.1036 19.9445L12.2476 21.8325L18.8564 14.3275L16.7124 12.4395L10.1036 19.9445ZM12.3138 21.8897C13.2417 22.6785 13.8325 23.4049 14.2009 24.0412L22.8551 19.0308C21.8155 17.2351 20.4223 15.6575 18.7902 14.2703L12.3138 21.8897ZM14.2009 24.0412C14.3891 24.3662 14.584 24.9087 14.584 25.856H24.584C24.584 23.4753 24.0749 21.1378 22.8551 19.0308L14.2009 24.0412ZM14.584 25.856C14.584 26.2449 14.5023 26.4882 14.3845 26.6934L23.0555 31.6746C24.0897 29.8745 24.584 27.8991 24.584 25.856H14.584ZM14.3672 26.7237C14.2808 26.8765 14.1648 27.0136 13.9007 27.1621L18.8033 35.8779C20.5872 34.8744 22.0498 33.4542 23.0728 31.6443L14.3672 26.7237ZM13.9007 27.1621C13.7272 27.2597 13.4106 27.384 12.8 27.384V37.384C14.8774 37.384 16.9288 36.9323 18.8033 35.8779L13.9007 27.1621ZM22.7735 31.136L18.7482 34.102L18.7672 34.1277L18.7865 34.1532L22.7735 31.136ZM21.8775 13.504V8.504H16.8775V13.504H21.8775ZM27.0935 13.504H32.0935V8.504H27.0935V13.504ZM27.3495 28.448L31.3932 25.5071L31.3932 25.5071L27.3495 28.448ZM29.7175 28.224L32.1688 32.5819L34.7175 31.1482V28.224H29.7175ZM29.7175 13.504V8.504H24.7175V13.504H29.7175ZM34.9015 13.504H39.9015V8.504H34.9015V13.504ZM34.9015 32V37H39.9015V32H34.9015ZM29.7175 32H24.7175V37H29.7175V32ZM29.7175 30.304H34.7175V18.8556L26.3194 26.6362L29.7175 30.304ZM25.3335 27.32C25.3746 27.32 25.6213 27.329 25.9604 27.4859C26.318 27.6512 26.5912 27.895 26.7605 28.1188L18.7865 34.1532C20.4524 36.3546 22.8746 37.32 25.3335 37.32V27.32ZM26.7988 28.17C26.837 28.2218 26.8651 28.2705 26.8843 28.3103C26.9032 28.3494 26.9095 28.3718 26.9091 28.3704C26.9077 28.3653 26.8775 28.2553 26.8775 28H16.8775C16.8775 30.0558 17.3643 32.2238 18.7482 34.102L26.7988 28.17ZM26.8775 28V13.504H16.8775V28H26.8775ZM21.8775 18.504H27.0935V8.504H21.8775V18.504ZM22.0935 13.504V27.392H32.0935V13.504H22.0935ZM22.0935 27.392C22.0935 28.3187 22.2354 29.917 23.3058 31.3889L31.3932 25.5071C31.7749 26.032 31.9423 26.5231 32.0168 26.83C32.0904 27.1337 32.0935 27.3398 32.0935 27.392H22.0935ZM23.3058 31.3889C24.7069 33.3153 26.7635 33.8 28.1815 33.8V23.8C28.4819 23.8 29.0116 23.844 29.6337 24.1072C30.2986 24.3885 30.9234 24.8612 31.3932 25.5071L23.3058 31.3889ZM28.1815 33.8C29.9489 33.8 31.4733 32.9731 32.1688 32.5819L27.2662 23.8661C27.0613 23.9814 27.004 23.9976 27.0659 23.9744C27.1019 23.9608 27.2079 23.9229 27.3719 23.886C27.5303 23.8503 27.8114 23.8 28.1815 23.8V33.8ZM34.7175 28.224V13.504H24.7175V28.224H34.7175ZM29.7175 18.504H34.9015V8.504H29.7175V18.504ZM29.9015 13.504V32H39.9015V13.504H29.9015ZM34.9015 27H29.7175V37H34.9015V27ZM34.7175 32V30.304H24.7175V32H34.7175ZM26.3194 26.6362C25.896 27.0284 25.5999 27.2019 25.4445 27.2733C25.3076 27.3363 25.2836 27.32 25.3335 27.32V37.32C28.4463 37.32 31.064 35.8726 33.1156 33.9718L26.3194 26.6362ZM38.1945 13.504V8.504H33.1945V13.504H38.1945ZM43.4105 13.504H48.4105V8.504H43.4105V13.504ZM43.4105 14.848H38.4105V26.3141L46.8128 18.512L43.4105 14.848ZM45.3625 13.6L43.5299 8.94795L43.5299 8.94796L45.3625 13.6ZM50.3865 14.688L46.1719 17.3782L46.192 17.4097L46.2126 17.441L50.3865 14.688ZM50.3225 30.784L46.2023 27.9514L46.2023 27.9514L50.3225 30.784ZM43.4105 30.592L46.6944 26.8216L38.4105 19.6066V30.592H43.4105ZM43.4105 38.08V43.08H48.4105V38.08H43.4105ZM38.1945 38.08H33.1945V43.08H38.1945V38.08ZM45.8105 28.384L41.5441 25.7767L41.49 25.8652L41.4397 25.9558L45.8105 28.384ZM45.8425 16.864L50.1522 14.3289L50.1522 14.3289L45.8425 16.864ZM43.4105 16.96L40.0471 13.2603L38.4105 14.7481V16.96H43.4105ZM43.4105 28.48H38.4105V31.1885L40.6792 32.6681L43.4105 28.48ZM38.1945 18.504H43.4105V8.504H38.1945V18.504ZM38.4105 13.504V14.848H48.4105V13.504H38.4105ZM46.8128 18.512C46.9886 18.3486 47.1149 18.2836 47.1951 18.252L43.5299 8.94796C42.2021 9.47102 41.027 10.238 40.0082 11.184L46.8128 18.512ZM47.1951 18.252C47.3988 18.1718 47.4602 18.184 47.4105 18.184V8.184C46.0382 8.184 44.7342 8.47351 43.5299 8.94795L47.1951 18.252ZM47.4105 18.184C47.461 18.184 47.242 18.1917 46.9073 18.0225C46.5467 17.8403 46.2992 17.5776 46.1719 17.3782L54.6011 11.9978C52.9102 9.34873 50.1999 8.184 47.4105 8.184V18.184ZM46.2126 17.441C46.1768 17.3866 46.3785 17.6476 46.3785 18.624H56.3785C56.3785 16.3577 55.9189 13.9947 54.5604 11.935L46.2126 17.441ZM46.3785 18.624V26.592H56.3785V18.624H46.3785ZM46.3785 26.592C46.3785 27.7638 46.1372 28.0461 46.2023 27.9514L54.4427 33.6166C55.9158 31.4739 56.3785 28.9616 56.3785 26.592H46.3785ZM46.2023 27.9514C46.2635 27.8623 46.4409 27.6562 46.7573 27.4929C47.068 27.3326 47.3063 27.32 47.3465 27.32V37.32C50.2139 37.32 52.7729 36.0454 54.4427 33.6166L46.2023 27.9514ZM47.3465 27.32C47.4549 27.32 47.4833 27.3479 47.3965 27.3098C47.2937 27.2647 47.0565 27.137 46.6944 26.8216L40.1266 34.3624C42.0402 36.0291 44.4729 37.32 47.3465 37.32V27.32ZM38.4105 30.592V38.08H48.4105V30.592H38.4105ZM43.4105 33.08H38.1945V43.08H43.4105V33.08ZM43.1945 38.08V13.504H33.1945V38.08H43.1945ZM44.7865 33.96C45.7096 33.96 46.7912 33.7671 47.8458 33.1739C48.9176 32.571 49.6817 31.7115 50.1813 30.8122L41.4397 25.9558C41.726 25.4405 42.2128 24.869 42.9432 24.4581C43.6565 24.0569 44.3327 23.96 44.7865 23.96V33.96ZM50.0769 30.9913C50.9389 29.5808 51.1625 28.0873 51.1625 26.88H41.1625C41.1625 26.8799 41.1619 26.7693 41.2061 26.5806C41.2515 26.3864 41.3472 26.099 41.5441 25.7767L50.0769 30.9913ZM51.1625 26.88V18.24H41.1625V26.88H51.1625ZM51.1625 18.24C51.1625 17.0697 50.9394 15.6672 50.1522 14.3289L41.5328 19.3991C41.1723 18.7862 41.1625 18.301 41.1625 18.24H51.1625ZM50.1522 14.3289C49.025 12.4127 47.0503 11.32 44.8825 11.32V21.32C44.3714 21.32 43.682 21.2053 42.9774 20.8061C42.2696 20.405 41.806 19.8636 41.5328 19.3991L50.1522 14.3289ZM44.8825 11.32C42.8478 11.32 41.2073 12.2056 40.0471 13.2603L46.7739 20.6597C46.6766 20.7481 46.464 20.9176 46.1241 21.0654C45.7693 21.2196 45.3433 21.32 44.8825 21.32V11.32ZM38.4105 16.96V28.48H48.4105V16.96H38.4105ZM40.6792 32.6681C41.689 33.3267 43.0908 33.96 44.7865 33.96V23.96C45.6289 23.96 46.1133 24.2733 46.1418 24.2919L40.6792 32.6681ZM55.6628 30.72L52.1958 34.3229L52.2137 34.34L52.2316 34.357L55.6628 30.72ZM55.6628 14.816L59.0939 18.453L59.1118 18.436L59.1297 18.4189L55.6628 14.816ZM65.0068 14.752L68.5785 11.2531L68.5785 11.2531L65.0068 14.752ZM66.5428 23.072V28.072H71.5428V23.072H66.5428ZM59.1188 23.072V18.072H54.1188V23.072H59.1188ZM61.7428 24.864V19.864H56.7428V24.864H61.7428ZM66.5428 24.864H71.5428V19.864H66.5428V24.864ZM64.9108 30.88L61.6026 27.1308L61.5842 27.1471L61.5659 27.1635L64.9108 30.88ZM61.7428 20.64V25.64H66.7428V20.64H61.7428ZM61.3588 17.344L57.4272 20.4331L57.5499 20.5894L57.6847 20.7354L61.3588 17.344ZM59.4388 17.376L63.599 20.1495L63.599 20.1495L59.4388 17.376ZM59.1188 20.64H54.1188V25.64H59.1188V20.64ZM60.3988 27.32C59.816 27.32 59.4712 27.2425 59.2951 27.183C59.1381 27.13 59.0982 27.0872 59.0939 27.083L52.2316 34.357C54.5453 36.5396 57.4964 37.32 60.3988 37.32V27.32ZM59.1297 27.1171C59.1268 27.1144 59.1101 27.106 59.0791 27.0224C59.0402 26.9174 58.9668 26.6512 58.9668 26.144H48.9668C48.9668 29.1038 49.8521 32.0676 52.1958 34.3229L59.1297 27.1171ZM58.9668 26.144V19.36H48.9668V26.144H58.9668ZM58.9668 19.36C58.9668 18.8517 59.0405 18.5931 59.0751 18.5004C59.0918 18.4556 59.1022 18.4415 59.0995 18.4455C59.0964 18.4502 59.0924 18.4544 59.0939 18.453L52.2316 11.179C49.8508 13.4251 48.9668 16.4049 48.9668 19.36H58.9668ZM59.1297 18.4189C59.1381 18.4107 59.1765 18.3699 59.3237 18.3192C59.4906 18.2617 59.8252 18.184 60.3988 18.184V8.184C57.4708 8.184 54.5064 8.98974 52.1958 11.2131L59.1297 18.4189ZM60.3988 18.184C61.012 18.184 61.3423 18.264 61.4761 18.3095C61.5845 18.3464 61.5284 18.3463 61.435 18.2509L68.5785 11.2531C66.2902 8.91706 63.2439 8.184 60.3988 8.184V18.184ZM61.435 18.2509C61.3616 18.176 61.3734 18.1435 61.4153 18.2691C61.4648 18.4176 61.5428 18.7547 61.5428 19.36H71.5428C71.5428 16.5367 70.8226 13.5439 68.5785 11.2531L61.435 18.2509ZM61.5428 19.36V23.072H71.5428V19.36H61.5428ZM66.5428 18.072H59.1188V28.072H66.5428V18.072ZM54.1188 23.072V26.624H64.1188V23.072H54.1188ZM54.1188 26.624C54.1188 27.6628 54.2573 29.3036 55.2373 30.8226C56.4602 32.7181 58.4442 33.608 60.3988 33.608V23.608C60.8372 23.608 61.4645 23.696 62.1339 24.0419C62.8202 24.3965 63.3186 24.9028 63.6402 25.4014C64.1936 26.259 64.1188 26.9079 64.1188 26.624H54.1188ZM60.3988 33.608C62.0667 33.608 64.0446 32.9762 65.4068 31.16C66.566 29.6144 66.7428 27.8941 66.7428 26.816H56.7428C56.7428 26.8109 56.7429 26.7715 56.7502 26.7033C56.7575 26.6355 56.7731 26.527 56.808 26.3873C56.8765 26.1134 57.0363 25.654 57.4068 25.16C57.7984 24.6378 58.3321 24.2043 58.9561 23.9269C59.551 23.6625 60.0725 23.608 60.3988 23.608V33.608ZM66.7428 26.816V24.864H56.7428V26.816H66.7428ZM61.7428 29.864H66.5428V19.864H61.7428V29.864ZM61.5428 24.864V26.656H71.5428V24.864H61.5428ZM61.5428 26.656C61.5428 27.1047 61.4762 27.288 61.4708 27.302C61.4689 27.3068 61.4788 27.2808 61.5078 27.2386C61.5373 27.1958 61.5716 27.1582 61.6026 27.1308L68.2189 34.6292C70.6667 32.4693 71.5428 29.5183 71.5428 26.656H61.5428ZM61.5659 27.1635C61.6104 27.1235 61.6072 27.1505 61.4625 27.1967C61.2998 27.2486 60.9673 27.32 60.3988 27.32V37.32C63.1344 37.32 65.9887 36.6366 68.2556 34.5965L61.5659 27.1635ZM66.7428 20.64V18.784H56.7428V20.64H66.7428ZM66.7428 18.784C66.7428 17.7601 66.6065 15.6575 65.0328 13.9526L57.6847 20.7354C57.1155 20.1188 56.897 19.5057 56.8156 19.2003C56.7345 18.8965 56.7428 18.7278 56.7428 18.784H66.7428ZM65.2903 14.2549C63.9823 12.5901 62.1125 11.896 60.3668 11.896V21.896C59.994 21.896 59.4621 21.8292 58.8768 21.5649C58.2739 21.2925 57.7831 20.8861 57.4272 20.4331L65.2903 14.2549ZM60.3668 11.896C58.3973 11.896 56.4773 12.8043 55.2785 14.6025L63.599 20.1495C63.286 20.619 62.8018 21.1085 62.1279 21.4571C61.4645 21.8002 60.8323 21.896 60.3668 21.896V11.896ZM55.2785 14.6025C54.1767 16.2552 54.1188 18.1545 54.1188 19.072H64.1188C64.1188 18.8624 64.1344 18.8485 64.1121 18.967C64.0996 19.033 64.0693 19.1728 64.001 19.3616C63.9335 19.5485 63.812 19.8299 63.599 20.1495L55.2785 14.6025ZM54.1188 19.072V20.64H64.1188V19.072H54.1188ZM59.1188 25.64H61.7428V15.64H59.1188V25.64ZM69.446 13.504V8.504H64.446V13.504H69.446ZM74.662 13.504H79.662V8.504H74.662V13.504ZM74.662 16.576H69.662V35.5596L79.0133 19.039L74.662 16.576ZM76.518 14.08L79.8481 17.8097L79.8481 17.8097L76.518 14.08ZM79.43 13.376H84.43V9.55703L80.7456 8.55218L79.43 13.376ZM79.43 18.56L77.573 23.2024L84.43 25.9452V18.56H79.43ZM74.662 19.968L70.6962 16.9229L69.662 18.2698V19.968H74.662ZM74.662 32V37H79.662V32H74.662ZM69.446 32H64.446V37H69.446V32ZM69.446 18.504H74.662V8.504H69.446V18.504ZM69.662 13.504V16.576H79.662V13.504H69.662ZM79.0133 19.039C79.2555 18.6111 79.4589 18.3018 79.6183 18.0875C79.7816 17.868 79.8625 17.7968 79.8481 17.8097L73.1879 10.3503C72.0096 11.4024 71.0741 12.7644 70.3107 14.113L79.0133 19.039ZM79.8481 17.8097C79.7189 17.925 79.5221 18.0584 79.2651 18.1558C79.0091 18.2528 78.783 18.28 78.63 18.28V8.28C76.6077 8.28 74.714 8.98777 73.1879 10.3503L79.8481 17.8097ZM78.63 18.28C78.5811 18.28 78.3928 18.2757 78.1144 18.1998L80.7456 8.55218C79.9978 8.34825 79.2762 8.28 78.63 8.28V18.28ZM74.43 13.376V18.56H84.43V13.376H74.43ZM81.287 13.9176C80.2778 13.5139 79.0622 13.176 77.734 13.176V23.176C77.5481 23.176 77.4382 23.1523 77.4219 23.1486C77.4052 23.1448 77.4532 23.1544 77.573 23.2024L81.287 13.9176ZM77.734 13.176C74.566 13.176 72.2204 14.938 70.6962 16.9229L78.6278 23.0131C78.794 22.7966 78.8147 22.8395 78.6374 22.9429C78.5443 22.9972 78.411 23.0593 78.2418 23.1063C78.0711 23.1536 77.8976 23.176 77.734 23.176V13.176ZM69.662 19.968V32H79.662V19.968H69.662ZM74.662 27H69.446V37H74.662V27ZM74.446 32V13.504H64.446V32H74.446ZM81.92 6.08V1.08H76.92V6.08H81.92ZM95.488 7.584L92.6451 11.6971L92.6451 11.6971L95.488 7.584ZM96.992 17.056L92.4112 15.0519L92.4112 15.0519L96.992 17.056ZM94.496 19.456L92.3556 14.9373L88.5327 16.7482L89.6852 20.8183L94.496 19.456ZM98.048 32V37H104.66L102.859 30.6377L98.048 32ZM92.128 32L87.2718 33.1906L88.2058 37H92.128V32ZM89.28 20.384L94.1362 19.1934L93.2022 15.384H89.28V20.384ZM87.648 20.384V15.384H82.648V20.384H87.648ZM87.648 32V37H92.648V32H87.648ZM81.92 32H76.92V37H81.92V32ZM91.648 16.192L87.6645 13.1701L87.6562 13.181L87.648 13.192L91.648 16.192ZM91.712 10.816L87.6433 13.7222L87.6685 13.7574L87.6942 13.7921L91.712 10.816ZM87.648 9.92V4.92H82.648V9.92H87.648ZM87.648 17.088H82.648V22.088H87.648V17.088ZM81.92 11.08H89.056V1.08H81.92V11.08ZM89.056 11.08C91.4439 11.08 92.3986 11.5267 92.6451 11.6971L98.3309 3.47086C95.6761 1.63593 92.3428 1.08 89.056 1.08V11.08ZM92.6451 11.6971C92.5913 11.66 92.5391 11.6104 92.5006 11.5611C92.4641 11.5144 92.4667 11.5025 92.4892 11.5576C92.5419 11.6871 92.664 12.0923 92.664 12.928H102.664C102.664 9.51644 101.673 5.78099 98.3309 3.47086L92.6451 11.6971ZM92.664 12.928C92.664 14.3041 92.4735 14.9095 92.4112 15.0519L101.573 19.0601C102.407 17.1545 102.664 15.0078 102.664 12.928H92.664ZM92.4112 15.0519C92.4322 15.004 92.4595 14.9551 92.4912 14.9099C92.5228 14.8649 92.5506 14.8351 92.5665 14.8198C92.5983 14.7892 92.5545 14.8431 92.3556 14.9373L96.6364 23.9747C98.7098 22.9925 100.547 21.4043 101.573 19.0601L92.4112 15.0519ZM89.6852 20.8183L93.2372 33.3623L102.859 30.6377L99.3068 18.0937L89.6852 20.8183ZM98.048 27H92.128V37H98.048V27ZM96.9842 30.8094L94.1362 19.1934L84.4238 21.5746L87.2718 33.1906L96.9842 30.8094ZM89.28 15.384H87.648V25.384H89.28V15.384ZM82.648 20.384V32H92.648V20.384H82.648ZM87.648 27H81.92V37H87.648V27ZM86.92 32V6.08H76.92V32H86.92ZM89.248 22.088C91.0985 22.088 93.8316 21.6139 95.648 19.192L87.648 13.192C88.077 12.6201 88.5992 12.3157 88.9632 12.1798C89.2802 12.0615 89.4221 12.088 89.248 12.088V22.088ZM95.6315 19.2139C97.0402 17.3569 97.352 15.1695 97.352 13.44H87.352C87.352 13.7418 87.3213 13.8427 87.332 13.8008C87.3445 13.7518 87.4184 13.4945 87.6645 13.1701L95.6315 19.2139ZM97.352 13.44C97.352 11.8201 97.0863 9.67121 95.7298 7.83986L87.6942 13.7921C87.4237 13.4269 87.3466 13.1387 87.3344 13.0888C87.323 13.0419 87.352 13.1393 87.352 13.44H97.352ZM95.7807 7.90981C94.0588 5.49922 91.4332 4.92 89.504 4.92V14.92C89.5754 14.92 89.3452 14.9334 88.9599 14.7771C88.5244 14.6004 88.0263 14.2583 87.6433 13.7222L95.7807 7.90981ZM89.504 4.92H87.648V14.92H89.504V4.92ZM82.648 9.92V17.088H92.648V9.92H82.648ZM87.648 22.088H89.248V12.088H87.648V22.088ZM102.132 30.72L98.6646 34.3229L98.6824 34.34L98.7004 34.357L102.132 30.72ZM102.132 14.816L105.563 18.453L105.581 18.436L105.598 18.4189L102.132 14.816ZM111.476 14.752L115.047 11.2531L115.047 11.2531L111.476 14.752ZM113.012 23.072V28.072H118.012V23.072H113.012ZM105.588 23.072V18.072H100.588V23.072H105.588ZM108.212 24.864V19.864H103.212V24.864H108.212ZM113.012 24.864H118.012V19.864H113.012V24.864ZM111.38 30.88L108.071 27.1308L108.053 27.1471L108.035 27.1635L111.38 30.88ZM108.212 20.64V25.64H113.212V20.64H108.212ZM107.828 17.344L103.896 20.4331L104.019 20.5894L104.153 20.7354L107.828 17.344ZM105.908 17.376L110.068 20.1495L110.068 20.1495L105.908 17.376ZM105.588 20.64H100.588V25.64H105.588V20.64ZM106.868 27.32C106.285 27.32 105.94 27.2425 105.764 27.183C105.607 27.13 105.567 27.0872 105.563 27.083L98.7004 34.357C101.014 36.5396 103.965 37.32 106.868 37.32V27.32ZM105.598 27.1171C105.596 27.1144 105.579 27.106 105.548 27.0224C105.509 26.9174 105.436 26.6512 105.436 26.144H95.4355C95.4355 29.1038 96.3209 32.0676 98.6646 34.3229L105.598 27.1171ZM105.436 26.144V19.36H95.4355V26.144H105.436ZM105.436 19.36C105.436 18.8517 105.509 18.5931 105.544 18.5004C105.561 18.4556 105.571 18.4415 105.568 18.4455C105.565 18.4502 105.561 18.4544 105.563 18.453L98.7004 11.179C96.3196 13.4251 95.4355 16.4049 95.4355 19.36H105.436ZM105.598 18.4189C105.607 18.4107 105.645 18.3699 105.792 18.3192C105.959 18.2617 106.294 18.184 106.868 18.184V8.184C103.94 8.184 100.975 8.98974 98.6646 11.2131L105.598 18.4189ZM106.868 18.184C107.481 18.184 107.811 18.264 107.945 18.3095C108.053 18.3464 107.997 18.3463 107.904 18.2509L115.047 11.2531C112.759 8.91706 109.713 8.184 106.868 8.184V18.184ZM107.904 18.2509C107.83 18.176 107.842 18.1435 107.884 18.2691C107.934 18.4176 108.012 18.7547 108.012 19.36H118.012C118.012 16.5367 117.291 13.5439 115.047 11.2531L107.904 18.2509ZM108.012 19.36V23.072H118.012V19.36H108.012ZM113.012 18.072H105.588V28.072H113.012V18.072ZM100.588 23.072V26.624H110.588V23.072H100.588ZM100.588 26.624C100.588 27.6628 100.726 29.3036 101.706 30.8226C102.929 32.7181 104.913 33.608 106.868 33.608V23.608C107.306 23.608 107.933 23.696 108.603 24.0419C109.289 24.3965 109.787 24.9028 110.109 25.4014C110.662 26.259 110.588 26.9079 110.588 26.624H100.588ZM106.868 33.608C108.535 33.608 110.513 32.9762 111.876 31.16C113.035 29.6144 113.212 27.8941 113.212 26.816H103.212C103.212 26.8109 103.212 26.7715 103.219 26.7033C103.226 26.6355 103.242 26.527 103.277 26.3873C103.345 26.1134 103.505 25.654 103.876 25.16C104.267 24.6378 104.801 24.2043 105.425 23.9269C106.02 23.6625 106.541 23.608 106.868 23.608V33.608ZM113.212 26.816V24.864H103.212V26.816H113.212ZM108.212 29.864H113.012V19.864H108.212V29.864ZM108.012 24.864V26.656H118.012V24.864H108.012ZM108.012 26.656C108.012 27.1047 107.945 27.288 107.94 27.302C107.938 27.3068 107.948 27.2808 107.977 27.2386C108.006 27.1958 108.04 27.1582 108.071 27.1308L114.688 34.6292C117.135 32.4693 118.012 29.5183 118.012 26.656H108.012ZM108.035 27.1635C108.079 27.1235 108.076 27.1505 107.931 27.1967C107.769 27.2486 107.436 27.32 106.868 27.32V37.32C109.603 37.32 112.457 36.6366 114.724 34.5965L108.035 27.1635ZM113.212 20.64V18.784H103.212V20.64H113.212ZM113.212 18.784C113.212 17.7601 113.075 15.6575 111.502 13.9526L104.153 20.7354C103.584 20.1188 103.366 19.5057 103.284 19.2003C103.203 18.8965 103.212 18.7278 103.212 18.784H113.212ZM111.759 14.2549C110.451 12.5901 108.581 11.896 106.836 11.896V21.896C106.463 21.896 105.931 21.8292 105.346 21.5649C104.743 21.2925 104.252 20.8861 103.896 20.4331L111.759 14.2549ZM106.836 11.896C104.866 11.896 102.946 12.8043 101.747 14.6025L110.068 20.1495C109.755 20.619 109.271 21.1085 108.597 21.4571C107.933 21.8002 107.301 21.896 106.836 21.896V11.896ZM101.747 14.6025C100.645 16.2552 100.588 18.1545 100.588 19.072H110.588C110.588 18.8624 110.603 18.8485 110.581 18.967C110.568 19.033 110.538 19.1728 110.47 19.3616C110.402 19.5485 110.281 19.8299 110.068 20.1495L101.747 14.6025ZM100.588 19.072V20.64H110.588V19.072H100.588ZM105.588 25.64H108.212V15.64H105.588V25.64ZM118.411 31.616L116.025 36.0103L116.074 36.0369L116.124 36.0624L118.411 31.616ZM116.843 29.888L112.2 31.745L112.2 31.745L116.843 29.888ZM116.395 16.928H121.395V11.928H116.395V16.928ZM114.603 16.928H109.603V21.928H114.603V16.928ZM114.603 13.504V8.504H109.603V13.504H114.603ZM116.395 13.504V18.504H121.395V13.504H116.395ZM116.395 7.872V2.872H111.395V7.872H116.395ZM121.675 7.872H126.675V2.872H121.675V7.872ZM121.675 13.504H116.675V18.504H121.675V13.504ZM124.299 13.504H129.299V8.504H124.299V13.504ZM124.299 16.928V21.928H129.299V16.928H124.299ZM121.675 16.928V11.928H116.675V16.928H121.675ZM122.091 27.616L118.699 31.29L118.845 31.4248L119.002 31.5476L122.091 27.616ZM124.715 27.84H129.715V21.9377L123.893 22.908L124.715 27.84ZM124.715 31.936L125.537 36.868L129.715 36.1716V31.936H124.715ZM121.579 27.192C121.119 27.192 120.823 27.1588 120.657 27.1287C120.486 27.0976 120.53 27.0836 120.697 27.1696L116.124 36.0624C117.888 36.9695 119.86 37.192 121.579 37.192V27.192ZM120.796 27.2217C120.871 27.2626 121.012 27.355 121.162 27.5201C121.314 27.688 121.421 27.8705 121.485 28.031L112.2 31.745C112.958 33.6391 114.316 35.0823 116.025 36.0103L120.796 27.2217ZM121.485 28.031C121.504 28.0782 121.478 28.0286 121.449 27.8397C121.42 27.6529 121.395 27.3712 121.395 26.976H111.395C111.395 28.5266 111.58 30.1938 112.2 31.745L121.485 28.031ZM121.395 26.976V16.928H111.395V26.976H121.395ZM116.395 11.928H114.603V21.928H116.395V11.928ZM119.603 16.928V13.504H109.603V16.928H119.603ZM114.603 18.504H116.395V8.504H114.603V18.504ZM121.395 13.504V7.872H111.395V13.504H121.395ZM116.395 12.872H121.675V2.872H116.395V12.872ZM116.675 7.872V13.504H126.675V7.872H116.675ZM121.675 18.504H124.299V8.504H121.675V18.504ZM119.299 13.504V16.928H129.299V13.504H119.299ZM124.299 11.928H121.675V21.928H124.299V11.928ZM116.675 16.928V26.464H126.675V16.928H116.675ZM116.675 26.464C116.675 27.8541 117.07 29.7858 118.699 31.29L125.482 23.942C126.557 24.9342 126.675 26.0979 126.675 26.464H116.675ZM119.002 31.5476C120.444 32.681 122.062 32.968 123.307 32.968V22.968C123.527 22.968 124.335 23.0203 125.18 23.6844L119.002 31.5476ZM123.307 32.968C124.06 32.968 124.809 32.8933 125.537 32.772L123.893 22.908C123.596 22.9574 123.407 22.968 123.307 22.968V32.968ZM119.715 27.84V31.936H129.715V27.84H119.715ZM123.893 27.004C123.148 27.1282 122.378 27.192 121.579 27.192V37.192C122.913 37.192 124.234 37.0851 125.537 36.868L123.893 27.004ZM127.227 13.504V8.504H122.227V13.504H127.227ZM132.443 13.504H137.443V8.504H132.443V13.504ZM132.443 16.576H127.443V35.5596L136.795 19.039L132.443 16.576ZM134.299 14.08L137.629 17.8097L137.629 17.8097L134.299 14.08ZM137.211 13.376H142.211V9.55703L138.527 8.55218L137.211 13.376ZM137.211 18.56L135.354 23.2024L142.211 25.9452V18.56H137.211ZM132.443 19.968L128.477 16.9229L127.443 18.2698V19.968H132.443ZM132.443 32V37H137.443V32H132.443ZM127.227 32H122.227V37H127.227V32ZM127.227 18.504H132.443V8.504H127.227V18.504ZM127.443 13.504V16.576H137.443V13.504H127.443ZM136.795 19.039C137.037 18.6111 137.24 18.3018 137.4 18.0875C137.563 17.868 137.644 17.7968 137.629 17.8097L130.969 10.3503C129.791 11.4024 128.855 12.7644 128.092 14.113L136.795 19.039ZM137.629 17.8097C137.5 17.925 137.303 18.0584 137.046 18.1558C136.79 18.2528 136.564 18.28 136.411 18.28V8.28C134.389 8.28 132.495 8.98777 130.969 10.3503L137.629 17.8097ZM136.411 18.28C136.362 18.28 136.174 18.2757 135.896 18.1998L138.527 8.55218C137.779 8.34825 137.057 8.28 136.411 8.28V18.28ZM132.211 13.376V18.56H142.211V13.376H132.211ZM139.068 13.9176C138.059 13.5139 136.843 13.176 135.515 13.176V23.176C135.329 23.176 135.219 23.1523 135.203 23.1486C135.186 23.1448 135.234 23.1544 135.354 23.2024L139.068 13.9176ZM135.515 13.176C132.347 13.176 130.002 14.938 128.477 16.9229L136.409 23.0131C136.575 22.7966 136.596 22.8395 136.419 22.9429C136.326 22.9972 136.192 23.0593 136.023 23.1063C135.852 23.1536 135.679 23.176 135.515 23.176V13.176ZM127.443 19.968V32H137.443V19.968H127.443ZM132.443 27H127.227V37H132.443V27ZM132.227 32V13.504H122.227V32H132.227ZM140.725 30.784L137.369 34.49L137.386 34.5056L137.403 34.521L140.725 30.784ZM140.725 14.72L137.403 10.983L137.386 10.9984L137.369 11.014L140.725 14.72ZM150.261 14.752L146.901 18.4548L146.92 18.472L146.939 18.489L150.261 14.752ZM150.261 30.784L153.583 34.521L153.602 34.504L153.621 34.4868L150.261 30.784ZM146.549 28.32L150.968 30.6594L150.995 30.6081L151.021 30.5561L146.549 28.32ZM146.549 17.216L142.077 19.4521L142.103 19.5041L142.13 19.5554L146.549 17.216ZM144.469 17.216L140.098 14.7878L140.046 14.8828L139.997 14.9799L144.469 17.216ZM144.469 28.32L139.997 30.5561L140.073 30.7084L140.16 30.8551L144.469 28.32ZM145.493 27.32C144.893 27.32 144.521 27.2434 144.314 27.1769C144.125 27.1158 144.062 27.0604 144.047 27.047L137.403 34.521C139.727 36.5867 142.635 37.32 145.493 37.32V27.32ZM144.082 27.078C144.1 27.0946 144.12 27.1176 144.135 27.1404C144.15 27.1622 144.147 27.1634 144.134 27.1287C144.105 27.0539 144.029 26.7993 144.029 26.272H134.029C134.029 29.2186 134.899 32.2534 137.369 34.49L144.082 27.078ZM144.029 26.272V19.232H134.029V26.272H144.029ZM144.029 19.232C144.029 18.7047 144.105 18.4501 144.134 18.3753C144.147 18.3406 144.15 18.3417 144.135 18.3636C144.12 18.3864 144.1 18.4094 144.082 18.426L137.369 11.014C134.899 13.2506 134.029 16.2854 134.029 19.232H144.029ZM144.047 18.457C144.062 18.4436 144.125 18.3882 144.314 18.3271C144.521 18.2606 144.893 18.184 145.493 18.184V8.184C142.635 8.184 139.727 8.9173 137.403 10.983L144.047 18.457ZM145.493 18.184C146.084 18.184 146.446 18.2609 146.643 18.3258C146.823 18.3848 146.883 18.4381 146.901 18.4548L153.621 11.0492C151.299 8.94159 148.376 8.184 145.493 8.184V18.184ZM146.939 18.489C146.928 18.4787 146.91 18.46 146.895 18.4377C146.88 18.4161 146.882 18.4119 146.892 18.4394C146.915 18.4984 146.989 18.7312 146.989 19.232H156.989C156.989 16.2589 156.079 13.2339 153.583 11.015L146.939 18.489ZM146.989 19.232V26.272H156.989V19.232H146.989ZM146.989 26.272C146.989 26.7717 146.915 27.0123 146.888 27.0838C146.87 27.1305 146.876 27.1042 146.901 27.0812L153.621 34.4868C156.078 32.2575 156.989 29.2502 156.989 26.272H146.989ZM146.939 27.047C146.924 27.0604 146.862 27.1158 146.672 27.1769C146.466 27.2434 146.093 27.32 145.493 27.32V37.32C148.351 37.32 151.259 36.5867 153.583 34.521L146.939 27.047ZM145.525 33.864C147.432 33.864 149.723 33.0111 150.968 30.6594L142.13 25.9806C142.472 25.3355 143.035 24.7205 143.803 24.3124C144.524 23.9297 145.168 23.864 145.525 23.864V33.864ZM151.021 30.5561C151.729 29.1408 151.837 27.6527 151.837 26.624H141.837C141.837 26.7957 141.825 26.833 141.836 26.7709C141.845 26.7195 141.893 26.4528 142.077 26.0839L151.021 30.5561ZM151.837 26.624V18.88H141.837V26.624H151.837ZM151.837 18.88C151.837 17.8842 151.74 16.3337 150.968 14.8766L142.13 19.5554C142.014 19.3357 141.945 19.1497 141.905 19.0217C141.864 18.893 141.846 18.8004 141.838 18.7567C141.825 18.6785 141.837 18.7062 141.837 18.88H151.837ZM151.021 14.9799C150.524 13.9845 149.725 13.0587 148.601 12.4261C147.515 11.8154 146.415 11.64 145.525 11.64V21.64C145.126 21.64 144.442 21.5606 143.698 21.1419C142.915 20.7013 142.383 20.0635 142.077 19.4521L151.021 14.9799ZM145.525 11.64C143.477 11.64 141.312 12.6028 140.098 14.7878L148.84 19.6442C148.532 20.1979 148.021 20.7731 147.288 21.1735C146.582 21.5583 145.931 21.64 145.525 21.64V11.64ZM139.997 14.9799C139.297 16.3809 139.181 17.8452 139.181 18.88H149.181C149.181 18.7261 149.192 18.7015 149.18 18.7727C149.169 18.8358 149.119 19.0962 148.941 19.4521L139.997 14.9799ZM139.181 18.88V26.624H149.181V18.88H139.181ZM139.181 26.624C139.181 27.6527 139.289 29.1408 139.997 30.5561L148.941 26.0839C149.126 26.4528 149.174 26.7195 149.183 26.7709C149.193 26.833 149.181 26.7957 149.181 26.624H139.181ZM140.16 30.8551C141.435 33.024 143.612 33.864 145.525 33.864V23.864C145.889 23.864 146.501 23.932 147.183 24.2831C147.901 24.6528 148.438 25.2049 148.779 25.7849L140.16 30.8551Z" fill="white"/>
</svg>
